# xmcd CD database file
#
# Track frame offsets:
#	182
#	10522
#	21540
#	33910
#	51630
#	68425
#	79305
#	94712
#	107875
#	119967
#	136162
#	144100
#
# Disc length: 2116 seconds
#
# Revision: 0
# Processed by: cddbd v1.5.2PL0 Copyright (c) Steve Scherf et al.
# Submitted via: CDex 1.70beta2
#
DISCID=a108420c
DTITLE=Kitten - Yodeling Cowgirl
DYEAR=1994
DGENRE=Country
TTITLE0=He Taught Me To Yodel
TTITLE1=I'm Still Singing Country Music
TTITLE2=Your Cheatin' Heart
TTITLE3=Have I Told You Lately That I Love You
TTITLE4=Don't Let Me Cross Over
TTITLE5=The Cattle Call
TTITLE6=Mother Pal and Sweetheart
TTITLE7=Cotton Fields
TTITLE8=Don't Run Away And Hide
TTITLE9=Send Me The Pillow That You Dream On
TTITLE10=It's A Small World
TTITLE11=China Doll
EXTD=YEAR: 1994
EXTT0=
EXTT1=
EXTT2=
EXTT3=
EXTT4=
EXTT5=
EXTT6=
EXTT7=
EXTT8=
EXTT9=
EXTT10=
EXTT11=
PLAYORDER=
